<svg version="1" xmlns="http://www.w3.org/2000/svg" width="1344" height="1344" viewBox="0 0 1008.000000 1008.000000"><path d="M704 125.6c-4.1.7-9.3 1.5-11.5 1.8-2.2.3-4.9.8-6 1-1.1.2-4.2.7-7 1-2.7.4-5.7.9-6.5 1.1-.8.2-3.5.6-6 .9-2.5.3-5.8.9-7.5 1.2-1.6.4-4.5.7-6.2.8-1.8 0-3.3.3-3.3.6s-1 .6-2.2.7c-2.2 0-8.6.9-13.8 1.8-1.4.3-3.8.7-5.5.9-5.8.9-12 1.8-14 2.2-2 .4-5 .9-12 1.9-7.9 1.1-11.6 1.7-18.5 2.9-1.4.3-4.3.7-6.5 1.1-2.2.3-5.3.7-7 1-1.6.3-4.6.7-6.5 1-1.9.2-4.6.7-6 1-1.3.2-4.2.7-6.5 1-2.2.3-5.1.8-6.5 1-1.4.3-4.3.7-6.5 1-2.2.2-4.9.6-6 .9-1.8.3-5.5.9-13.7 2.2-5 .7-9.3 1.4-11.8 1.9-1.4.2-4.3.7-6.5 1-2.3.3-5 .7-6.2.9-3.3.7-9.5 1.6-13.8 2.2-2.2.2-5.3.7-7 1-1.6.3-3.9.7-5 .9-4.7.6-27.3 4.1-33 5.1-1.6.3-4.1.7-5.5.9-1.4.2-5.6.8-9.5 1.5-3.8.6-8.3 1.3-10 1.5-1.6.2-3 .4-3 .5 0 .2-2.7.7-7.5 1.3-3.9.5-13.3 1.9-21 3.2-1.4.2-4.3.7-6.5.9-2.2.3-4.9.8-6.1 1-1.2.2-4.5.7-7.5 1.1-3 .4-5.6.8-5.9 1-.3.1-3.2.6-6.5 1-3.2.3-6.2.8-6.5 1-.4.2-2.9.7-5.6 1-2.7.4-8.7 1.3-13.4 2-4.7.8-10.5 1.7-13 2-2.5.3-5.2.8-6 1-.8.2-3.7.6-6.3 1-2.6.3-7.1 1-9.9 1.5-2.8.6-5.3.8-5.6.6-.2-.3-1.4-.1-2.6.3-1.2.5-4.4 1.2-7.1 1.5-2.8.4-5.9.9-7 1.1-1.1.3-3.8.7-6 .9-2.2.3-5.1.8-6.5 1.1-1.4.3-4.3.7-6.5 1-2.2.2-5.1.6-6.5.9-4.3.9-26.3 4.3-32.5 5.1-1.6.2-7.5 1.1-13 2-5.5.9-10.9 1.8-12 2-2.5.3-10.1 1.5-13.5 2-6.4 1-15.9 2.5-19.5 3-2.2.4-5.1.8-6.5 1.1-1.4.2-4.1.7-6 1-1.9.3-4.6.8-6 1-1.4.3-3.2.6-4 .6-.8 0-3.7.5-6.5 1-2.7.5-6.9 1.1-9.1 1.4-2.3.2-5.3.7-6.5.9-1.3.3-3.5.7-4.9.9-1.4.3-4.5.8-7 1.1-2.5.3-5.6.7-7 1-1.4.3-4.1.7-6 1-1.9.3-4.6.7-6 .9-1.4.3-8.8 1.4-16.5 2.6-7.7 1.2-15.1 2.3-16.5 2.6-1.4.3-4.1.7-6 .9-3.3.5-15.7 2.4-19 3-.9.2-4.1.6-7.3 1-3.1.4-5.9 1-6.1 1.4-.2.3.5 3.3 1.5 6.6 1.1 3.3 2.2 7.1 2.5 8.4.3 1.4.8 2.9 1.1 3.4.3.5.9 2.3 1.3 4.1.5 1.7 1.7 6 2.8 9.6 1.1 3.6 4.8 15.5 8.2 26.5 3.4 11 6.8 22.2 7.6 25 .8 2.7 2.1 6.8 2.8 9 1.5 4.3 6.7 21.1 7.1 22.9.1.6.5 1.8.8 2.6.3.8 2 6.2 3.7 12 1.7 5.8 4.5 14.7 6.1 19.9 3.2 10.2 3.2 10.6-.6 22.6-1.2 3.8-3.2 10.4-4.4 14.5-1.2 4.1-2.8 9.3-3.6 11.5-1.2 3.7-5.8 18.3-6 19.5-.6 2.4-3.2 11.1-5.6 18.3-1.6 4.9-3.1 9.6-3.3 10.5-.1.9-.6 2.4-.9 3.2-.9 2.4-18.9 61.2-19.2 63.1-.2 1-.8 2.7-1.4 3.8-1.7 3-1.3 4 1.1 3.6 1.2-.3 4-.7 6.3-1 2.2-.3 4.7-.8 5.5-1 .8-.2 3.5-.6 6-.9 2.5-.3 5.4-.8 6.5-1 1.1-.2 4-.7 6.5-1 2.5-.3 5.6-.8 7-1.1 1.3-.2 4.1-.7 6.2-1 2-.3 5-.8 6.5-1 1.5-.2 3.9-.6 5.3-.9 3-.5 11.7-1.8 14.5-2.2 1.1-.1 3.8-.5 6-.9 8-1.3 16.6-2.7 19-3 1.1-.1 3.6-.5 5.5-.9 1.9-.3 5.3-.8 7.5-1.1 2.2-.3 6.7-1 10-1.6 3.3-.6 7.9-1.3 10.3-1.5 2.3-.2 4.6-.5 5-.8.4-.2 3.2-.7 6.2-1.1 3-.3 6.2-.8 7-1 .8-.2 3.5-.7 6-1 2.5-.3 5.8-.8 7.3-1.1 1.6-.3 3.8-.7 5-.9 3.2-.4 11.9-1.7 14.2-2.1 1.1-.3 4.7-.8 8-1.3s11.9-1.9 19-3c7.2-1.1 15-2.3 17.5-2.6 2.5-.3 5.2-.8 6.1-1.1.9-.2 3.4-.7 5.5-.9 5.6-.6 10.2-1.3 13.2-1.9 1.5-.3 4.3-.8 6.2-1 1.9-.3 4.6-.8 6-1 1.4-.3 4.7-.7 7.4-1.1 2.7-.3 5.2-.8 5.5-.9.3-.2 3.1-.7 6.2-1 3.1-.4 6.6-.8 7.7-1.1 2.5-.4 8.1-1.3 13-2 2-.3 6-1 8.7-1.5 2.8-.5 6.8-1.1 9-1.4 2.2-.3 5.1-.8 6.5-1.1 1.4-.2 4.5-.7 7-1 2.5-.3 5.9-.8 7.5-1.1 1.7-.3 4.4-.7 6-.9 1.7-.2 3-.5 3-.6 0-.1 1.1-.3 2.5-.4 2.4-.2 7.5-1 13-2 1.4-.2 4.3-.7 6.5-1 4.2-.6 8-1.2 13-2 1.7-.3 4.6-.8 6.5-1.1 1.9-.2 4.7-.7 6.2-1 1.5-.3 4.1-.7 5.8-.9 6.6-.9 11.6-1.6 14-2 5.8-1.2 6.9-1.4 12.1-2 3-.3 6.1-.8 6.9-1 .8-.2 3.5-.7 6-1 2.5-.3 8.3-1.3 13-2.1 4.7-.8 9.9-1.7 11.6-1.8 3.2-.4 9.6-1.3 14.9-2.3 1.7-.3 4.1-.7 5.5-.8 1.4-.2 2.5-.4 2.5-.5 0 0 1.8-.3 4-.6 8-1.1 9-1.2 9-1.4 0-.1 1.4-.3 3-.5 1.7-.2 4.8-.7 7-1 2.2-.3 5.1-.8 6.5-1 3-.4 8.5-1.4 12-2 1.4-.2 4.5-.7 7-1 5.1-.7 7.7-1.1 18.8-3 1.5-.2 4.5-.7 6.7-.9 2.2-.3 4.9-.7 6-1 1.1-.2 4.5-.7 7.5-1.2 3-.4 5.7-.8 6-.9.3-.1 3-.5 6-.9 3-.5 6.4-1 7.5-1.2 1-.2 3.7-.6 6-.9 2.2-.3 5.1-.8 6.5-1.1 2.6-.5 5.5-.9 12.5-1.9 2.2-.3 5.1-.7 6.5-1 1.4-.3 4.3-.7 6.5-1.1 2.2-.3 5.4-.8 7-1.1 4.7-.8 7.7-1.2 12-1.8 2.2-.2 5.1-.7 6.5-1 4.1-.9 6.2-1.2 12-2 3-.4 6.4-.9 7.5-1.1 1-.2 3.5-.6 5.5-.9 2-.3 4.7-.7 6-1 3.2-.6 8.8-1.4 13.6-2 7.9-1 7.9-1 7.9-4.6 0-1.9-.3-4.8-.7-6.4-.7-2.5-2.9-12.4-4.3-19.5-.2-.8-1.1-5.1-2-9.5-.9-4.4-1.8-8.9-2-10-.1-1.1-.8-4.1-1.4-6.8-.6-2.6-1.4-6.4-1.7-8.5-.3-2-.7-3.9-.9-4.2-.2-.3-.6-2.5-1-5s-.8-4.8-1.1-5.1c-.2-.4-.6-2.4-1-4.4-.3-2.1-.8-4.7-1.1-5.9-1.4-5.9-2-9.6-1.5-9.6.2 0-.1-.7-.8-1.5-.7-.8-1-1.5-.7-1.5.3 0 0-1.9-.5-4.3-1-4.1-1.4-6.1-2.2-11.2-.3-1.4-.7-3.3-1-4.3-.3-.9-.7-2.8-1-4.2-.2-1.4-1.2-6.1-2.1-10.5-.9-4.4-1.9-9.1-2.2-10.5-.2-1.4-1-5.2-1.8-8.5-.7-3.3-1.2-6.2-1-6.5.2-.3.6-2.5 1-5s.8-4.7 1-5.1c.2-.3.6-1.9.9-3.5.6-3.4 2.3-11.8 3.1-15.4.3-1.4.7-3.6 1-5 .2-1.4 1.4-6.8 2.5-12 1.2-5.2 2.3-10.6 2.5-12 .2-1.4.4-2.7.6-3 .1-.3.3-1 .4-1.5.1-.6.5-3 1-5.5.4-2.5.9-5.2 1-6 .1-.8.7-3.3 1.3-5.5.6-2.2 1.3-5.4 1.6-7 .7-3.7 2.3-12.1 3.1-15.5.5-2.4 2.2-10.1 3.1-14.8.3-1.3 2.1-10.1 4.1-19.5 2-9.5 3.6-18 3.5-18.9 0-1 .4-2 .9-2.3 1.2-.8.2-2.5-1.4-2.4-.7.1-4.6.7-8.7 1.5zm-185.9 93.7c.1 1.1 0 12.1-.4 29.2l-.2 8-5 .7c-2.7.5-6.6 1-8.5 1.3-5.5.7-9.2 1.3-13 2-1.9.3-4.8.8-6.5 1-1.6.2-5.2.6-8 1.1-2.7.4-5.9.8-7 1-1.1.1-2 .3-2 .4 0 .1-1.1.3-2.5.4-8.4.9-14.1 2-14.7 2.8-.3.6-.7 7.2-.8 14.7-.2 7.5-.4 16.1-.6 19.1-.3 5.3-.2 5.5 2.2 5.3 4.5-.3 16.9-2 22.4-3 1.7-.3 4.6-.7 6.5-.8 1.9-.2 3.5-.4 3.5-.5 0-.1 1.1-.3 2.5-.5 1.4-.1 4.3-.5 6.5-.8 9.4-1.4 12.2-1.8 14.7-2.1l2.8-.3-.4 19.1-.4 19.1-4.3.6c-2.4.4-6.4 1-8.9 1.3-2.5.4-5.6.9-7 1.1-3.5.6-12 1.7-15.5 2-1.6.2-3 .4-3 .5 0 .1-1.6.3-3.5.6-1.9.2-4.6.6-5.9.9-1.3.3-4.6.8-7.5 1.1-2.8.3-5.3.8-5.5 1-.2.2-.5 10.3-.8 22.4l-.4 22.1 2.3-.5c1.3-.3 4.1-.8 6.3-1.1 2.2-.3 5.4-.8 7-1 1.7-.3 4.6-.7 6.5-1 1.9-.2 3.5-.5 3.5-.6 0-.1 1.4-.3 3-.4 1.7-.1 4.4-.5 6-.8 1.7-.3 5.3-.9 8-1.3 2.8-.3 5.7-.7 6.5-.9.8-.1 3.5-.6 6-1 9.3-1.4 10.3-1.6 11-2 .3-.2 1.2 0 2 .5 1.1.7 1.4 3.1 1.2 11.2-.2 5.7-.4 13.9-.5 18.3l-.2 8-5 1.1c-2.7.6-6 1-7.2.9-1.3-.1-2.3.2-2.3.7 0 .5-.4.7-.9.4-.7-.5-4.9 0-16.1 1.9-1.4.2-4.5.7-7 1-2.5.3-7.2 1-10.5 1.5s-8.2 1.2-11 1.5c-2.7.4-5.7.8-6.5 1-.8.2-3.7.7-6.5 1-2.7.3-7.2 1-10 1.5-2.7.5-7.2 1.2-10 1.5-2.7.3-9 1.2-13.9 2s-9.2 1.3-9.5 1c-.4-.2-.6-4.1-.5-8.7.1-4.6.5-19.3.9-32.8.3-13.5.8-31.9 1-41 .3-9.1.7-25.3.9-36 .3-10.7.8-30.1 1.2-43 .3-12.9.7-26.5.8-30.2 0-3.6.5-7 .9-7.4.8-.8 1.3-.9 9.1-1.9 2.7-.4 5.6-.8 6.5-1 2.2-.4 8.7-1.3 13.6-2 2.3-.3 5-.7 6-.9 1.1-.2 4.3-.7 7-1 2.8-.4 6.1-.9 7.5-1.1 1.4-.2 6.1-.9 10.5-1.5s9.4-1.3 11-1.6c1.7-.3 4.4-.7 6-.9 1.7-.2 4.4-.6 6-.9 1.7-.4 5-.9 7.5-1.1 2.5-.3 5.4-.7 6.6-1 1.1-.2 4.3-.7 7-1 2.7-.4 5-.7 5.1-.8.8-.9 4.3-.3 4.4.6zM288 256.2c22.8 5.8 31.8 25.9 25.6 56.6-2.5 11.9-10 22.7-20.8 29.6l-2.9 1.9 3.3 1.4c1.8.9 4.4 2 5.7 2.6 2.9 1.4 11.1 8.6 10.9 9.5-.1.4.5 2 1.4 3.7 5.4 10.1 6.6 34.5 2.4 49-3.4 11.6-12 23.9-21.6 30.6-4.8 3.3-14 8.2-14 7.3 0-.3-.6-.2-1.2.3-1.5 1.2-8.3 3.5-11.3 3.9-1.1.1-2 .3-2 .4 0 .4-11.1 2.3-21 3.5-2.2.3-5 .7-6.3.9-1.3.3-5.8 1-10 1.6-15.2 2.2-27 4-30.2 4.6l-6.3.9-3.8.5.6-29.7c1.1-49.9 1.3-58.9 2-83.3.6-21.9 1.2-49 1.8-74.2.1-5.9.7-11.1 1.2-11.7.6-.5 3.7-1.2 7-1.6 3.3-.3 7.1-.8 8.5-1 1.4-.2 4.3-.6 6.5-1 2.3-.3 5-.7 6.2-.9 2.6-.5 14-2.3 19.8-3 3.5-.5 10.9-1.6 14.5-2.2 1.4-.2 5.7-.7 9.5-1 3.9-.3 7.1-.7 7.3-.9.6-.6 12.9.6 17.2 1.7z"/><path d="M254.5 294.1c-2.2.4-6.2 1-9 1.3-2.7.4-5.9.9-7 1.1-1.1.2-2.5.4-3.1.4-.6.1-1 2.7-1.1 6.3 0 3.5-.2 13-.6 21.1l-.5 14.9 4.6-.6c2.6-.3 6.7-.8 9.2-1.2 17.9-2.3 23.3-8.1 23.7-25.3.2-9.3-.4-11.8-3.6-15.2-2.3-2.4-7.9-3.7-12.6-2.8zM252.8 370.5c-.3.3-4.9 1-13.7 2-2.5.2-4.9.9-5.4 1.4-.5.5-1 6.5-1.1 13.3-.1 6.8-.5 12.9-.9 13.5-.5.7-.4 1.3 0 1.3.5 0 .8 1.5.7 3.2-.4 5.1-.6 11.1-.5 13.6.1 1.7.5 2.2 1.9 1.8 1.5-.5 6.9-1.3 13.7-2.1 1.1-.1 2.1-.4 2.3-.5.1-.1 1-.3 2-.5 6.8-.7 9.4-2 13-6.1 2.1-2.4 3.9-4.9 3.9-5.6.1-.7.6-2.8 1.2-4.6 1.4-4.7.8-20-1-23.6-2.1-4.2-5.8-6.6-11.1-7-2.6-.2-4.8-.3-5-.1zM1002.7 436.6c-.1.1-2.2.5-4.7.8-2.5.4-5.6.9-7 1.1-5.2 1-9.6 1.6-13 2-1.9.3-4.6.7-6 1-3.8.8-8.2 1.5-12.5 2-2.2.2-4.1.5-4.2.6-.5.3-1.5.5-7.3 1.3-3 .4-6.2.9-7 1.1-.8.2-3.5.6-6 .9-2.5.4-5.8.9-7.5 1.3-1.6.3-4.1.7-5.5.8-1.4.2-3.8.5-5.5.8-4.8.9-28.7 4.7-32.5 5.2-1.9.3-4.6.7-6 1-1.4.3-4.1.7-6 1-1.9.3-4.6.7-6 1-1.4.3-4.1.7-6 .9-1.9.3-4.6.7-6 1-1.4.2-4.7.8-7.5 1.2-2.7.4-5.5.8-6.2 1-1.8.3-9.3 1.5-13.3 2-1.9.2-4.6.7-6 1-1.4.3-3.8.8-5.3 1-7.1.9-11.3 1.5-12.7 1.9-.8.3-3.3.7-5.5 1-3.5.5-6 .8-14 2-1.1.2-2 .4-2 .5 0 .1-1.6.3-3.5.5-4.5.6-7.7 1.1-12 1.8-1.9.4-5.1.9-7 1.2-5.6.9-9.3 1.5-13 2-1.9.3-4.6.8-6 1-1.4.3-4.1.7-6 .9-1.9.3-10.5 1.6-19 3-8.5 1.3-17.1 2.7-19 3-1.9.3-4.6.8-5.9 1-1.2.3-4.4.8-6.9 1.1-2.6.3-5.4.7-6.2 1-.8.2-3.5.7-6 1-2.5.2-5.8.7-7.5 1.1-1.6.3-4.3.7-6 .9-1.6.1-3 .4-3 .5 0 .2-3.1.8-8.5 1.5-11 1.5-15.5 2.2-17.8 2.9-.9.3-4.3.8-7.6 1.1-3.2.3-6.1.7-6.5.9-.4.3-2.9.7-5.6 1.1-2.8.4-5.9.8-7 1-9.4 1.4-15.9 2.5-19 3.2-1.1.3-2.7.5-3.5.5-.8 0-3.7.5-6.5 1-2.7.5-6.8 1.1-9 1.3-2.2.3-5.1.7-6.5 1-1.4.3-3.8.8-5.5 1-3.1.4-9.8 1.5-12.5 2-.8.2-3.7.6-6.5.9-2.7.4-5.7.9-6.5 1.1-.8.2-3.3.6-5.5 1-2.2.3-8 1.2-13 2-4.9.8-10.6 1.7-12.5 1.9-1.9.3-4.6.8-6 1.1-1.4.3-4.3.7-6.5 1-2.2.3-5.1.7-6.5.9-1.4.3-8.3 1.4-15.5 2.6-7.1 1.1-14.1 2.3-15.5 2.5-1.4.2-4.7.7-7.5 1.1-2.7.3-5.9.8-7 1-1.1.3-3.6.7-5.5 1-5.5.8-8.3 1.3-10.5 1.7-1.1.3-4.1.7-6.6 1.1-4.3.6-6.4 1-13.4 2.1-1.6.2-4.8.7-7 1-2.2.4-4.8.8-5.8 1.1-.9.3-3.4.7-5.5.9-2 .2-9.5 1.3-16.7 2.5-7.1 1.1-14.3 2.3-16 2.6-1.6.2-4.1.6-5.5.9-1.4.3-4.1.7-6 .9-1.9.2-5.1.7-7 1-1.9.3-4.6.8-6 1-1.4.2-4.1.7-6 1-1.9.3-4.8.8-6.5 1.1-1.6.3-5 .8-7.5 1.1-2.4.3-4.7.7-5 .9-.5.3-10.5 1.7-12.7 1.8-.7 0-1.3.3-1.3.6s-1.5.6-3.2.7c-3.1 0-8.9.8-14.8 2-1.4.2-3.8.6-5.5.9-3.4.4-9.7 1.5-12.9 2.1-1.1.2-4.1.7-6.6 1-2.5.3-5.6.7-7 1-1.4.2-4.1.7-6 1-1.9.3-4.8.8-6.5 1.1-1.6.3-4.1.6-5.5.8-3.1.3-9 1.6-9 1.9 0 .4 2 6.6 2.7 8.6.3.8.7 2.2.9 3 .3 1.4 2.8 9.5 11.5 37.2 1.7 5.4 3.2 10.3 3.3 11 .2.7.6 2 .9 2.8 1 2.5 7.8 25.3 8.3 27.9.3 1.3 1 3.3 1.5 4.3.6 1.1 1.2 2.7 1.4 3.8.2 1 1.5 5.5 3 10.1s2.8 8.8 2.9 9.4c.1.5.5 1.9.8 3 .4 1.1 2.1 6.7 3.8 12.5 1.8 5.8 4.1 13.2 5.2 16.5 3.1 9.4 3.1 9.8-1.3 23.7-2.2 7.3-4.2 14-4.4 14.8-.2.8-.8 2.7-1.4 4.3-.6 1.5-1.3 3.8-1.6 5-.8 4-5 17.2-5.5 17.7-.3.3-.6 1.3-.8 2.2-.2 1.6-9 30.5-16.3 54.2-1.7 5.4-3.2 10.4-3.4 11-.1.6-.5 1.8-.8 2.6-1 2.4-8.8 28.2-9.7 31.8-.8 3.3-.8 3.4 1.8 2.7 1.5-.4 4.1-.8 5.7-1 1.7-.1 6.2-.8 10-1.4 3.9-.7 8.6-1.4 10.5-1.6 1.9-.2 5.6-.8 8.2-1.4 2.7-.6 5.1-1.1 5.5-1 .5.1 1 0 1.3-.1.3-.1 1.4-.3 2.5-.4 5.6-.8 11.3-1.7 13.5-2.1 1.4-.3 3.9-.7 5.5-.9 1.7-.2 4.6-.7 6.5-1.1 1.9-.3 5.1-.8 7-1 1.9-.2 3.5-.4 3.5-.5 0-.1.9-.3 2-.5 7-1 10.4-1.5 13.5-2 1.9-.2 4.6-.7 6-1.1 1.4-.3 3.6-.7 5-.9 5.2-.6 11.6-1.6 14.3-2.1 1.6-.3 3.8-.7 5-.9 1.2-.2 4.5-.6 7.2-1 2.8-.4 5.7-.8 6.5-1 1.6-.2 9.3-1.5 12.5-2.1 1.9-.4 8.6-1.4 13-2 1.1-.1 2.2-.3 2.5-.4.3-.1.8-.2 1.3-.1.4.1 2.6-.3 5-.8 2.3-.6 6-1.2 8.2-1.5 2.2-.3 8.1-1.2 13-2 5-.8 10.8-1.7 13-2 2.2-.4 9.4-1.5 16-2.6 6.6-1 13.6-2.2 15.5-2.4 1.9-.3 4.6-.8 6-1 4.6-.9 10.5-1.8 13-2.1 1.4-.1 5.2-.8 8.5-1.4 6.6-1.1 9.9-1.7 16-2.6 2.3-.3 5.2-.8 6.5-1 1.4-.3 4.3-.7 6.5-1 5-.7 8-1.1 12.5-2 1.9-.3 4.6-.8 6-1 9.1-1.3 10.5-1.5 19.5-3 3.2-.6 9.7-1.6 13-2.1 3.7-.5 7-1.2 7-1.4 0-.1 1.6-.3 3.5-.4 3.1-.2 7.5-.9 14.5-2.2 1-.2 3.7-.6 6-.9 2.2-.3 6.7-1.1 10-1.6 3.3-.6 7.6-1.3 9.5-1.5 3.6-.5 7.1-1.1 8-1.4.3-.1.8-.2 1.2-.1.4 0 3.1-.4 6-.9s6.9-1.1 8.8-1.4c1.9-.3 4.6-.8 6-1.1 1.4-.3 4.3-.7 6.5-1 2.2-.3 5.1-.7 6.5-1 1.3-.2 4.2-.7 6.5-1 2.2-.3 9.2-1.5 15.5-2.5 11.2-1.8 14.9-2.4 22.8-3.5 2-.3 6-1 8.7-1.5 2.8-.5 6.8-1.2 9-1.5 2.3-.3 5.2-.8 6.5-1 1.4-.3 4.3-.8 6.5-1.1 2.2-.3 5.1-.7 6.5-.9 1.4-.1 4.1-.6 6-1 1.9-.4 4.9-.8 6.5-1.1 1.7-.2 4.1-.6 5.5-.8 1.4-.3 4.3-.8 6.5-1.1 2.3-.3 5-.7 6-.9 2.1-.4 8.9-1.5 14-2.2 1.7-.2 4.1-.6 5.5-.9 1.4-.2 4.1-.7 6-.9 1.9-.3 4.4-.7 5.5-1 1.1-.2 4.2-.7 6.8-1 2.6-.4 7-1.1 9.8-1.6 2.7-.5 5.3-.9 5.7-.9.4.1.9 0 1.2-.1.6-.2 3.1-.6 9.5-1.4 2.8-.4 5.8-.9 6.8-1.2 1.1-.3 2.9-.7 4-.9 1.2-.1 4.7-.6 7.7-1 3-.5 6.4-.9 7.5-1.1 1.1-.1 2-.3 2-.4 0-.2 2.3-.6 8.5-1.4 2.5-.3 5.9-.8 7.5-1.1 1.7-.3 5.7-.9 9-1.5 3.3-.5 7.8-1.2 10-1.6 2.2-.3 5.4-.8 7-1 1.7-.3 4.1-.7 5.3-1 1.3-.3 4.3-.7 6.5-1 2.3-.3 5.3-.8 6.7-1 1.4-.3 3.9-.7 5.5-.9 3.4-.5 10.2-1.6 12.6-2 2-.4 7.7-1.3 12.7-2.1 2-.3 5.1-.8 6.7-1.1 1.7-.3 4.1-.6 5.5-.8 1.4-.2 3.9-.5 5.5-.8 13-2.4 28.8-4.6 29.6-4.2.5.4.9.2.9-.3s.8-.9 1.8-.9c1.9.1 16.2-2.3 16.2-2.7 0-.2-3.4-16.7-4.5-21.6-2.9-13.4-7.8-37.1-8-39-.2-1.4-.4-2.5-.5-2.5-.1 0-.3-.9-.5-2-1.2-5.8-7.2-34.9-8.1-39-.4-1.7-.8-3.9-1-5-.2-1.1-.5-2.9-.8-4-.2-1.1-1.4-6.7-2.6-12.5-1.2-5.8-3.1-14.6-4.1-19.5-3.1-14.9-3.1-15.3-.4-28.5 1.5-6.9 2.9-13.6 3.1-15 .2-1.4.9-4.5 1.4-7 .6-2.5 1.3-5.6 1.6-7 .9-4.6 3.5-17.5 4-20 .3-1.4 1-4.5 1.5-7 .6-2.5 1.3-5.6 1.5-7 .9-4.7 1.3-6.5 3.9-19 1.5-6.9 2.9-13.4 3.1-14.5 4.6-22.9 4.8-23.7 5.9-28.8.3-1.2.7-3.3 1-4.7.3-1.4.8-3.9 1.1-5.5.4-1.7.8-3.9.9-5 .2-1.1.4-2 .5-2 .1 0 .3-1 .6-2.2.3-1.9 0-2.2-2.2-2.1-1.4.2-2.6.3-2.7.4zM805 530.5c6.9 1.3 15.7 6.4 20.4 11.7 6.9 7.9 9.1 15.8 9.1 32.8 0 11.5-.4 14.4-2.4 20-2.7 7.7-9.1 17-15.5 22.4-2.5 2.2-4.6 4.3-4.6 4.6 0 .4 2.2 1.9 4.9 3.3 17.6 9.6 24 32.9 16.5 59.7-1.7 6-6.7 16.1-9.9 19.9-5.2 6.3-15.9 15.1-18.3 15.1-.6 0-1.2.4-1.4.8-.3.8-14.3 6.9-17.7 7.8-.9.2-4.3 1.1-7.6 1.9-3.3.9-7.1 1.8-8.5 2.1-10.5 2-13.3 2.4-19 3-3.6.3-13.2.6-21.3.7-11.9.1-15-.1-15.7-1.3-.5-.8-.7-1.7-.5-2 .3-.5.5-8.6.5-17.5-.2-15.5.1-17.3 2.6-17.8 1.3-.2 2.6-.2 2.8.2.8 1.3 30 .1 38-1.5 1.2-.2 3.2-.6 4.6-.9 5.8-1.1 15-4.7 17.6-6.8 9.2-7.6 12.3-16 10.2-27.7-1.7-9.8-6.9-13.3-18.5-12.5-3.7.2-8.4.7-10.3 1-11.8 2.1-20.4 3.5-21.1 3.5-.5 0-.8-8.5-.7-19l.2-18.9 5-1c2.8-.6 6.9-1.3 9.1-1.6 5.3-.7 15.5-2.4 18.1-2.9 4.1-.8 9.5-3.6 12.1-6.2 4.7-4.7 5.3-6.5 6.6-19.4 0-.3-.3-1.9-.8-3.5-2.4-8.8-8.8-12.1-22.2-11.1-4.8.3-11.2 1.2-14.1 2-2.9.8-5.6 1.5-6 1.5-4.7.8-24.2 7-25.9 8.4-3.4 2.5-3.8.3-3.5-18.2l.3-18.2 3.2-1.4c3.6-1.5 6.7-2.7 8.2-3 .6-.2 3.7-1.1 7-2.1s6.5-1.9 7-2c.6-.1 2.9-.7 5.1-1.3 3.8-1 9.5-2.3 16.4-3.6 10.7-2.1 31.3-2.6 40-1zm-157.8 21c1.3.5 1.4 7.8.9 41.5-.1 1.9-.1 4.2 0 5 0 .8 0 2.4-.1 3.5s0 3.7.2 5.7c.2 2.1.1 3.8-.2 3.8-.3 0-.6 23.7-.8 52.8-.2 29-.4 60.3-.5 69.7l-.2 16.9-7.5 1.3c-4.1.7-9.1 1.5-11 1.8-1.9.3-6 1-9 1.5s-7.5 1.2-10 1.5c-2.5.3-5.7.8-7.1 1.1l-2.6.5.3-32.8c.2-18 .6-53.6.8-79.1l.4-46.2-3.1.6c-2.9.5-5.8 1.1-6.4 1.3-.2.1-.4.1-.5.1-.2 0-2.9.8-6 1.9-3.2 1.1-5.8 1.8-5.8 1.6 0-.2-3.2.9-7 2.5l-7.1 2.9.3-18.5.3-18.6 8.5-3.4c22.5-9.2 43-14.9 60-16.9 4.6-.6 10.5-1.7 10.9-2.1.5-.5.7-.5 2.3.1zm-148.1 26.3c.1 1.5.1 3 .1 3.4-.1.3-.2 7.6-.3 16.1l-.1 15.4-3.9-.7c-2.1-.4-3.9-.5-3.9-.1 0 .3-3.7.6-8.3.7-18.3.2-33.2 4.5-42.4 12.3-2 1.7-8.8 13.1-7.8 13.1.2 0 0 1.2-.6 2.7-1.2 3.1-1.8 7.5-2.3 15.1-.3 5-.2 5.2 1.8 4.6 1.1-.4 2.6-1 3.2-1.5 2.2-1.7 14.1-5.7 21.9-7.3 11.4-2.3 24.1-2.1 30 .4 7.6 3.3 9.7 4.5 13.4 8.3 4.9 4.7 8.2 10.7 10.5 18.9 2.3 7.8 2.6 9.3 3.1 18.4.2 4.5.5 8.6.6 9 .1.5.1 1.1 0 1.4-.1.3-.4 3.4-.6 7-.2 3.6-.7 7.8-1 9.5-.4 1.6-.8 3.9-1 5-.3 2.9-2.6 10.8-3.3 12-.4.5-.7 1.2-.8 1.5-.3 1.8-2.8 6.6-6 11.6-3.4 5.5-15.7 18.4-17.5 18.4-.4 0-1.4.6-2.1 1.3-2.5 2.4-16.5 8.7-23.3 10.3-7 1.8-11.5 2.5-16.7 2.9-2.5.1-5 .5-5.5.7-.4.2-1.7.3-2.8.2-1.1-.2-4.9-.5-8.5-.8-13-1-22.7-6.3-30.3-16.7-2.5-3.3-7.4-14.9-8.3-19.4-.2-1.1-.6-3.2-.9-4.6-.5-2.2-1.1-8.8-1.8-19.7-.1-1.7.1-3.2.5-3.2s.4-1.1-.1-2.3c-.5-1.3-.5-3-.1-3.7.5-.8.5-2.1 0-2.9-.4-.8-.4-2.5.1-3.8.5-1.3.4-2.5-.2-2.8-.5-.4-.6-1.1-.2-1.8.9-1.5 1-10.7 0-10.7-.5 0-.5-.5-.1-1.2.4-.6.8-8.6 1-17.7.3-16.3.7-22.3 1.8-27.8.3-1.5.8-4.4 1.1-6.3.9-5.1 3.4-12.8 6.1-18.6 1.3-2.8 2.4-5.4 2.4-5.8 0-1.8 8.4-12.8 13.8-18.2 6.9-6.8 14-11.3 24.3-15.5 7.5-3.1 19.1-6.4 25.7-7.4 2.1-.3 4.9-.8 6.2-1 1.4-.3 6.8-.8 12-1.1 5.2-.4 9.6-.7 9.7-.8.1 0 2.6.1 5.7.2 5.3.4 5.6.5 5.7 3z"/><path d="M443 688.7c-8.3 2.4-15.4 6.7-14.6 8.9.3.7.2 1.5-.2 1.8-.9.5-.7 27.3.2 33.9.9 6.6 4.1 13.1 7.3 14.8 3.4 1.8 15 1.7 18.3-.1 1.4-.8 3-1.5 3.6-1.6 1.2-.2 6.4-5.1 6.4-6 0-.3.6-2 1.4-3.7 2.6-5.9 3.5-12 3.4-23.1-.1-6.1-.4-11.6-.7-12.1-.3-.6-.7-1.8-.8-2.9-.5-3.1-5.7-9.4-8.3-10.2-4.4-1.2-11.3-1.1-16 .3z"/></svg>